<mxfile host="app.diagrams.net" modified="2023-09-04T19:08:46.862Z" agent="Mozilla/5.0 (Macintosh; Intel Mac OS X 10_15_7) AppleWebKit/605.1.15 (KHTML, like Gecko) Version/16.5.1 Safari/605.1.15" etag="N76XtdvdtFzVOi0kQlLi" version="21.6.7" type="device">
  <diagram name="Page-1" id="2YBvvXClWsGukQMizWep">
    <mxGraphModel dx="935" dy="537" grid="1" gridSize="10" guides="1" tooltips="1" connect="1" arrows="1" fold="1" page="1" pageScale="1" pageWidth="850" pageHeight="1100" math="0" shadow="0">
      <root>
        <mxCell id="0" />
        <mxCell id="1" parent="0" />
        <mxCell id="gePYQQojs46DnIE3U24d-2" value="Diagramme de séquences &amp;nbsp;Garage V PARROT" style="text;html=1;strokeColor=none;fillColor=none;align=center;verticalAlign=middle;whiteSpace=wrap;rounded=0;" vertex="1" parent="1">
          <mxGeometry x="400" y="10" width="150" height="30" as="geometry" />
        </mxCell>
        <mxCell id="gePYQQojs46DnIE3U24d-3" value="Visiteur" style="html=1;whiteSpace=wrap;" vertex="1" parent="1">
          <mxGeometry x="50" y="90" width="110" height="50" as="geometry" />
        </mxCell>
        <mxCell id="gePYQQojs46DnIE3U24d-5" value="Serveur web du garage avec ses fonctions" style="html=1;whiteSpace=wrap;" vertex="1" parent="1">
          <mxGeometry x="230" y="90" width="110" height="50" as="geometry" />
        </mxCell>
        <mxCell id="gePYQQojs46DnIE3U24d-6" value="Serveur web Véhicules d&#39;occasion" style="html=1;whiteSpace=wrap;" vertex="1" parent="1">
          <mxGeometry x="400" y="90" width="110" height="50" as="geometry" />
        </mxCell>
        <mxCell id="gePYQQojs46DnIE3U24d-7" value="&lt;span style=&quot;caret-color: rgb(0, 0, 0); color: rgb(0, 0, 0); font-family: Helvetica; font-size: 12px; font-style: normal; font-variant-caps: normal; font-weight: 400; letter-spacing: normal; text-align: center; text-indent: 0px; text-transform: none; word-spacing: 0px; -webkit-text-stroke-width: 0px; background-color: rgb(251, 251, 251); text-decoration: none; float: none; display: inline !important;&quot;&gt;Base de données des véhicules d&#39;occasion&lt;/span&gt;" style="html=1;whiteSpace=wrap;" vertex="1" parent="1">
          <mxGeometry x="560" y="400" width="110" height="50" as="geometry" />
        </mxCell>
        <mxCell id="gePYQQojs46DnIE3U24d-8" value="Formulaires questions" style="html=1;whiteSpace=wrap;" vertex="1" parent="1">
          <mxGeometry x="720" y="90" width="110" height="50" as="geometry" />
        </mxCell>
        <mxCell id="gePYQQojs46DnIE3U24d-9" value="Employés" style="html=1;whiteSpace=wrap;" vertex="1" parent="1">
          <mxGeometry x="870" y="90" width="110" height="50" as="geometry" />
        </mxCell>
        <mxCell id="gePYQQojs46DnIE3U24d-11" value="Système de gestion des véhicules d&#39;occasion" style="html=1;whiteSpace=wrap;" vertex="1" parent="1">
          <mxGeometry x="1030" y="90" width="110" height="50" as="geometry" />
        </mxCell>
        <mxCell id="gePYQQojs46DnIE3U24d-12" value="Système de gestion des réparations" style="html=1;whiteSpace=wrap;" vertex="1" parent="1">
          <mxGeometry x="1180" y="90" width="110" height="50" as="geometry" />
        </mxCell>
        <mxCell id="gePYQQojs46DnIE3U24d-13" value="Base de données des réparations" style="html=1;whiteSpace=wrap;" vertex="1" parent="1">
          <mxGeometry x="1320" y="90" width="110" height="50" as="geometry" />
        </mxCell>
        <mxCell id="gePYQQojs46DnIE3U24d-15" value="2 ème diagramme de séquence scénario avec les employés" style="text;html=1;align=center;verticalAlign=middle;resizable=0;points=[];autosize=1;strokeColor=none;fillColor=none;" vertex="1" parent="1">
          <mxGeometry x="890" y="18" width="340" height="30" as="geometry" />
        </mxCell>
        <mxCell id="gePYQQojs46DnIE3U24d-17" value="" style="endArrow=none;dashed=1;html=1;rounded=0;entryX=0.418;entryY=1.06;entryDx=0;entryDy=0;entryPerimeter=0;" edge="1" parent="1" source="gePYQQojs46DnIE3U24d-33" target="gePYQQojs46DnIE3U24d-5">
          <mxGeometry width="50" height="50" relative="1" as="geometry">
            <mxPoint x="276" y="320" as="sourcePoint" />
            <mxPoint x="280" y="230" as="targetPoint" />
          </mxGeometry>
        </mxCell>
        <mxCell id="gePYQQojs46DnIE3U24d-20" value="" style="endArrow=none;dashed=1;html=1;rounded=0;" edge="1" parent="1" source="gePYQQojs46DnIE3U24d-30">
          <mxGeometry width="50" height="50" relative="1" as="geometry">
            <mxPoint x="110" y="370" as="sourcePoint" />
            <mxPoint x="110" y="140" as="targetPoint" />
          </mxGeometry>
        </mxCell>
        <mxCell id="gePYQQojs46DnIE3U24d-21" value="" style="endArrow=none;dashed=1;html=1;rounded=0;" edge="1" parent="1" source="gePYQQojs46DnIE3U24d-46">
          <mxGeometry width="50" height="50" relative="1" as="geometry">
            <mxPoint x="460" y="380" as="sourcePoint" />
            <mxPoint x="460" y="140" as="targetPoint" />
          </mxGeometry>
        </mxCell>
        <mxCell id="gePYQQojs46DnIE3U24d-23" value="" style="endArrow=none;dashed=1;html=1;rounded=0;" edge="1" parent="1">
          <mxGeometry width="50" height="50" relative="1" as="geometry">
            <mxPoint x="770" y="760" as="sourcePoint" />
            <mxPoint x="770" y="140" as="targetPoint" />
          </mxGeometry>
        </mxCell>
        <mxCell id="gePYQQojs46DnIE3U24d-24" value="" style="endArrow=none;dashed=1;html=1;rounded=0;" edge="1" parent="1">
          <mxGeometry width="50" height="50" relative="1" as="geometry">
            <mxPoint x="930" y="440" as="sourcePoint" />
            <mxPoint x="930" y="140" as="targetPoint" />
          </mxGeometry>
        </mxCell>
        <mxCell id="gePYQQojs46DnIE3U24d-25" value="" style="endArrow=none;dashed=1;html=1;rounded=0;" edge="1" parent="1">
          <mxGeometry width="50" height="50" relative="1" as="geometry">
            <mxPoint x="1070" y="440" as="sourcePoint" />
            <mxPoint x="1070" y="140" as="targetPoint" />
          </mxGeometry>
        </mxCell>
        <mxCell id="gePYQQojs46DnIE3U24d-26" value="" style="endArrow=none;dashed=1;html=1;rounded=0;" edge="1" parent="1">
          <mxGeometry width="50" height="50" relative="1" as="geometry">
            <mxPoint x="1220" y="440" as="sourcePoint" />
            <mxPoint x="1220" y="140" as="targetPoint" />
          </mxGeometry>
        </mxCell>
        <mxCell id="gePYQQojs46DnIE3U24d-27" value="" style="endArrow=none;dashed=1;html=1;rounded=0;" edge="1" parent="1">
          <mxGeometry width="50" height="50" relative="1" as="geometry">
            <mxPoint x="1360" y="450" as="sourcePoint" />
            <mxPoint x="1360" y="140" as="targetPoint" />
          </mxGeometry>
        </mxCell>
        <mxCell id="gePYQQojs46DnIE3U24d-28" value="" style="endArrow=none;dashed=1;html=1;rounded=0;" edge="1" parent="1">
          <mxGeometry width="50" height="50" relative="1" as="geometry">
            <mxPoint x="1550" y="450" as="sourcePoint" />
            <mxPoint x="1550" y="140" as="targetPoint" />
          </mxGeometry>
        </mxCell>
        <mxCell id="gePYQQojs46DnIE3U24d-29" value="" style="endArrow=none;dashed=1;html=1;rounded=0;" edge="1" parent="1" source="gePYQQojs46DnIE3U24d-45" target="gePYQQojs46DnIE3U24d-30">
          <mxGeometry width="50" height="50" relative="1" as="geometry">
            <mxPoint x="110" y="440" as="sourcePoint" />
            <mxPoint x="110" y="140" as="targetPoint" />
          </mxGeometry>
        </mxCell>
        <mxCell id="gePYQQojs46DnIE3U24d-30" value="" style="html=1;points=[];perimeter=orthogonalPerimeter;outlineConnect=0;targetShapes=umlLifeline;portConstraint=eastwest;newEdgeStyle={&quot;edgeStyle&quot;:&quot;elbowEdgeStyle&quot;,&quot;elbow&quot;:&quot;vertical&quot;,&quot;curved&quot;:0,&quot;rounded&quot;:0};" vertex="1" parent="1">
          <mxGeometry x="105" y="170" width="10" height="120" as="geometry" />
        </mxCell>
        <mxCell id="gePYQQojs46DnIE3U24d-31" value="" style="html=1;verticalAlign=bottom;endArrow=block;edgeStyle=elbowEdgeStyle;elbow=vertical;curved=0;rounded=0;" edge="1" parent="1" target="gePYQQojs46DnIE3U24d-33">
          <mxGeometry width="80" relative="1" as="geometry">
            <mxPoint x="120" y="200" as="sourcePoint" />
            <mxPoint x="200" y="200" as="targetPoint" />
          </mxGeometry>
        </mxCell>
        <mxCell id="gePYQQojs46DnIE3U24d-32" value="" style="endArrow=none;dashed=1;html=1;rounded=0;" edge="1" parent="1" target="gePYQQojs46DnIE3U24d-33">
          <mxGeometry width="50" height="50" relative="1" as="geometry">
            <mxPoint x="274" y="430" as="sourcePoint" />
            <mxPoint x="274" y="297" as="targetPoint" />
          </mxGeometry>
        </mxCell>
        <mxCell id="gePYQQojs46DnIE3U24d-33" value="" style="html=1;points=[];perimeter=orthogonalPerimeter;outlineConnect=0;targetShapes=umlLifeline;portConstraint=eastwest;newEdgeStyle={&quot;edgeStyle&quot;:&quot;elbowEdgeStyle&quot;,&quot;elbow&quot;:&quot;vertical&quot;,&quot;curved&quot;:0,&quot;rounded&quot;:0};" vertex="1" parent="1">
          <mxGeometry x="270" y="170" width="10" height="120" as="geometry" />
        </mxCell>
        <mxCell id="gePYQQojs46DnIE3U24d-34" value="voir-service-gargage" style="text;html=1;strokeColor=none;fillColor=none;align=center;verticalAlign=middle;whiteSpace=wrap;rounded=0;" vertex="1" parent="1">
          <mxGeometry x="160" y="160" width="60" height="30" as="geometry" />
        </mxCell>
        <mxCell id="gePYQQojs46DnIE3U24d-36" value="" style="html=1;verticalAlign=bottom;endArrow=open;dashed=1;endSize=8;edgeStyle=elbowEdgeStyle;elbow=vertical;curved=0;rounded=0;" edge="1" parent="1">
          <mxGeometry relative="1" as="geometry">
            <mxPoint x="270" y="279" as="sourcePoint" />
            <mxPoint x="117.5" y="279" as="targetPoint" />
          </mxGeometry>
        </mxCell>
        <mxCell id="gePYQQojs46DnIE3U24d-38" value="envoie-info-service- garage" style="text;html=1;strokeColor=none;fillColor=none;align=center;verticalAlign=middle;whiteSpace=wrap;rounded=0;" vertex="1" parent="1">
          <mxGeometry x="160" y="230" width="60" height="30" as="geometry" />
        </mxCell>
        <mxCell id="gePYQQojs46DnIE3U24d-44" value="" style="endArrow=none;dashed=1;html=1;rounded=0;" edge="1" parent="1" source="gePYQQojs46DnIE3U24d-68" target="gePYQQojs46DnIE3U24d-45">
          <mxGeometry width="50" height="50" relative="1" as="geometry">
            <mxPoint x="110" y="680" as="sourcePoint" />
            <mxPoint x="110" y="290" as="targetPoint" />
          </mxGeometry>
        </mxCell>
        <mxCell id="gePYQQojs46DnIE3U24d-45" value="" style="html=1;points=[];perimeter=orthogonalPerimeter;outlineConnect=0;targetShapes=umlLifeline;portConstraint=eastwest;newEdgeStyle={&quot;edgeStyle&quot;:&quot;elbowEdgeStyle&quot;,&quot;elbow&quot;:&quot;vertical&quot;,&quot;curved&quot;:0,&quot;rounded&quot;:0};" vertex="1" parent="1">
          <mxGeometry x="105" y="310" width="10" height="80" as="geometry" />
        </mxCell>
        <mxCell id="gePYQQojs46DnIE3U24d-47" value="" style="endArrow=none;dashed=1;html=1;rounded=0;" edge="1" parent="1" target="gePYQQojs46DnIE3U24d-46">
          <mxGeometry width="50" height="50" relative="1" as="geometry">
            <mxPoint x="460" y="652" as="sourcePoint" />
            <mxPoint x="460" y="140" as="targetPoint" />
          </mxGeometry>
        </mxCell>
        <mxCell id="gePYQQojs46DnIE3U24d-46" value="" style="html=1;points=[];perimeter=orthogonalPerimeter;outlineConnect=0;targetShapes=umlLifeline;portConstraint=eastwest;newEdgeStyle={&quot;edgeStyle&quot;:&quot;elbowEdgeStyle&quot;,&quot;elbow&quot;:&quot;vertical&quot;,&quot;curved&quot;:0,&quot;rounded&quot;:0};" vertex="1" parent="1">
          <mxGeometry x="450" y="310" width="10" height="80" as="geometry" />
        </mxCell>
        <mxCell id="gePYQQojs46DnIE3U24d-49" value="voir-véhicules-occasion" style="html=1;verticalAlign=bottom;endArrow=block;edgeStyle=elbowEdgeStyle;elbow=vertical;curved=0;rounded=0;" edge="1" parent="1" target="gePYQQojs46DnIE3U24d-46">
          <mxGeometry width="80" relative="1" as="geometry">
            <mxPoint x="120" y="360" as="sourcePoint" />
            <mxPoint x="200" y="360" as="targetPoint" />
          </mxGeometry>
        </mxCell>
        <mxCell id="gePYQQojs46DnIE3U24d-50" value="" style="html=1;points=[];perimeter=orthogonalPerimeter;outlineConnect=0;targetShapes=umlLifeline;portConstraint=eastwest;newEdgeStyle={&quot;edgeStyle&quot;:&quot;elbowEdgeStyle&quot;,&quot;elbow&quot;:&quot;vertical&quot;,&quot;curved&quot;:0,&quot;rounded&quot;:0};" vertex="1" parent="1">
          <mxGeometry x="450" y="420" width="10" height="120" as="geometry" />
        </mxCell>
        <mxCell id="gePYQQojs46DnIE3U24d-51" value="" style="endArrow=none;dashed=1;html=1;rounded=0;" edge="1" parent="1">
          <mxGeometry width="50" height="50" relative="1" as="geometry">
            <mxPoint x="610" y="752" as="sourcePoint" />
            <mxPoint x="610" y="450" as="targetPoint" />
          </mxGeometry>
        </mxCell>
        <mxCell id="gePYQQojs46DnIE3U24d-52" value="create-base-de-&lt;br&gt;donnees-vehicules-&lt;br&gt;occasion" style="html=1;verticalAlign=bottom;endArrow=block;edgeStyle=elbowEdgeStyle;elbow=vertical;curved=0;rounded=0;entryX=-0.055;entryY=0.8;entryDx=0;entryDy=0;entryPerimeter=0;" edge="1" parent="1" source="gePYQQojs46DnIE3U24d-50" target="gePYQQojs46DnIE3U24d-7">
          <mxGeometry x="0.0644" y="10" width="80" relative="1" as="geometry">
            <mxPoint x="470" y="440" as="sourcePoint" />
            <mxPoint x="550" y="440" as="targetPoint" />
            <mxPoint as="offset" />
          </mxGeometry>
        </mxCell>
        <mxCell id="gePYQQojs46DnIE3U24d-53" value="" style="html=1;points=[];perimeter=orthogonalPerimeter;outlineConnect=0;targetShapes=umlLifeline;portConstraint=eastwest;newEdgeStyle={&quot;edgeStyle&quot;:&quot;elbowEdgeStyle&quot;,&quot;elbow&quot;:&quot;vertical&quot;,&quot;curved&quot;:0,&quot;rounded&quot;:0};" vertex="1" parent="1">
          <mxGeometry x="600" y="460" width="10" height="80" as="geometry" />
        </mxCell>
        <mxCell id="gePYQQojs46DnIE3U24d-59" value="" style="html=1;verticalAlign=bottom;endArrow=block;edgeStyle=elbowEdgeStyle;elbow=vertical;curved=0;rounded=0;" edge="1" parent="1" target="gePYQQojs46DnIE3U24d-56">
          <mxGeometry width="80" relative="1" as="geometry">
            <mxPoint x="460" y="470" as="sourcePoint" />
            <mxPoint x="600" y="470" as="targetPoint" />
          </mxGeometry>
        </mxCell>
        <mxCell id="gePYQQojs46DnIE3U24d-56" value="recherche-&lt;br&gt;liste-vehicules-&lt;br&gt;occasion" style="text;html=1;align=center;verticalAlign=middle;resizable=0;points=[];autosize=1;strokeColor=none;fillColor=none;" vertex="1" parent="1">
          <mxGeometry x="460" y="440" width="100" height="60" as="geometry" />
        </mxCell>
        <mxCell id="gePYQQojs46DnIE3U24d-61" value="" style="html=1;verticalAlign=bottom;endArrow=block;edgeStyle=elbowEdgeStyle;elbow=vertical;curved=0;rounded=0;" edge="1" parent="1" source="gePYQQojs46DnIE3U24d-50" target="gePYQQojs46DnIE3U24d-53">
          <mxGeometry width="80" relative="1" as="geometry">
            <mxPoint x="470" y="510" as="sourcePoint" />
            <mxPoint x="550" y="510" as="targetPoint" />
          </mxGeometry>
        </mxCell>
        <mxCell id="gePYQQojs46DnIE3U24d-64" value="" style="endArrow=none;dashed=1;html=1;rounded=0;" edge="1" parent="1" target="gePYQQojs46DnIE3U24d-62">
          <mxGeometry width="50" height="50" relative="1" as="geometry">
            <mxPoint x="110" y="680" as="sourcePoint" />
            <mxPoint x="110" y="390" as="targetPoint" />
          </mxGeometry>
        </mxCell>
        <mxCell id="gePYQQojs46DnIE3U24d-62" value="" style="html=1;points=[];perimeter=orthogonalPerimeter;outlineConnect=0;targetShapes=umlLifeline;portConstraint=eastwest;newEdgeStyle={&quot;edgeStyle&quot;:&quot;elbowEdgeStyle&quot;,&quot;elbow&quot;:&quot;vertical&quot;,&quot;curved&quot;:0,&quot;rounded&quot;:0};" vertex="1" parent="1">
          <mxGeometry x="105" y="570" width="10" height="80" as="geometry" />
        </mxCell>
        <mxCell id="gePYQQojs46DnIE3U24d-65" value="" style="html=1;points=[];perimeter=orthogonalPerimeter;outlineConnect=0;targetShapes=umlLifeline;portConstraint=eastwest;newEdgeStyle={&quot;edgeStyle&quot;:&quot;elbowEdgeStyle&quot;,&quot;elbow&quot;:&quot;vertical&quot;,&quot;curved&quot;:0,&quot;rounded&quot;:0};" vertex="1" parent="1">
          <mxGeometry x="760" y="580" width="10" height="80" as="geometry" />
        </mxCell>
        <mxCell id="gePYQQojs46DnIE3U24d-66" value="envoie-question-formulaire" style="html=1;verticalAlign=bottom;endArrow=block;edgeStyle=elbowEdgeStyle;elbow=vertical;curved=0;rounded=0;" edge="1" parent="1" target="gePYQQojs46DnIE3U24d-65">
          <mxGeometry width="80" relative="1" as="geometry">
            <mxPoint x="120" y="600" as="sourcePoint" />
            <mxPoint x="200" y="600" as="targetPoint" />
          </mxGeometry>
        </mxCell>
        <mxCell id="gePYQQojs46DnIE3U24d-67" value="retour-reponse-question-formulaire" style="html=1;verticalAlign=bottom;endArrow=open;dashed=1;endSize=8;edgeStyle=elbowEdgeStyle;elbow=vertical;curved=0;rounded=0;" edge="1" parent="1" target="gePYQQojs46DnIE3U24d-62">
          <mxGeometry relative="1" as="geometry">
            <mxPoint x="760" y="640" as="sourcePoint" />
            <mxPoint x="680" y="640" as="targetPoint" />
          </mxGeometry>
        </mxCell>
        <mxCell id="gePYQQojs46DnIE3U24d-69" value="" style="endArrow=none;dashed=1;html=1;rounded=0;" edge="1" parent="1" source="gePYQQojs46DnIE3U24d-62" target="gePYQQojs46DnIE3U24d-68">
          <mxGeometry width="50" height="50" relative="1" as="geometry">
            <mxPoint x="110" y="570" as="sourcePoint" />
            <mxPoint x="110" y="390" as="targetPoint" />
          </mxGeometry>
        </mxCell>
        <mxCell id="gePYQQojs46DnIE3U24d-68" value="" style="html=1;points=[];perimeter=orthogonalPerimeter;outlineConnect=0;targetShapes=umlLifeline;portConstraint=eastwest;newEdgeStyle={&quot;edgeStyle&quot;:&quot;elbowEdgeStyle&quot;,&quot;elbow&quot;:&quot;vertical&quot;,&quot;curved&quot;:0,&quot;rounded&quot;:0};" vertex="1" parent="1">
          <mxGeometry x="105" y="470" width="10" height="80" as="geometry" />
        </mxCell>
        <mxCell id="gePYQQojs46DnIE3U24d-70" value="renvoie-liste-&lt;br&gt;véhicules-occasion" style="html=1;verticalAlign=bottom;endArrow=open;dashed=1;endSize=8;edgeStyle=elbowEdgeStyle;elbow=vertical;curved=0;rounded=0;" edge="1" parent="1">
          <mxGeometry relative="1" as="geometry">
            <mxPoint x="600" y="530" as="sourcePoint" />
            <mxPoint x="460" y="530" as="targetPoint" />
          </mxGeometry>
        </mxCell>
        <mxCell id="gePYQQojs46DnIE3U24d-71" value="retour-affichage-vehicule-occasion" style="html=1;verticalAlign=bottom;endArrow=open;dashed=1;endSize=8;edgeStyle=elbowEdgeStyle;elbow=vertical;curved=0;rounded=0;" edge="1" parent="1" target="gePYQQojs46DnIE3U24d-68">
          <mxGeometry relative="1" as="geometry">
            <mxPoint x="450" y="530" as="sourcePoint" />
            <mxPoint x="370" y="530" as="targetPoint" />
          </mxGeometry>
        </mxCell>
        <mxCell id="gePYQQojs46DnIE3U24d-72" value="Formulaires réponses" style="html=1;whiteSpace=wrap;" vertex="1" parent="1">
          <mxGeometry x="1490" y="90" width="110" height="50" as="geometry" />
        </mxCell>
      </root>
    </mxGraphModel>
  </diagram>
</mxfile>
